DataType=double
version=3
OpenSimVersion=4.5
endheader
time	pelvis_tilt	pelvis_list	pelvis_rotation	pelvis_tx	pelvis_ty	pelvis_tz	hip_flexion_r	hip_adduction_r	hip_rotation_r	knee_angle_r	knee_frontal_r	knee_adduction_r	knee_angle_r_beta	ankle_angle_r	subtalar_angle_r	mtp_angle_r	hip_flexion_l	hip_adduction_l	hip_rotation_l	knee_angle_l	knee_frontal_l	knee_adduction_l	knee_angle_l_beta	ankle_angle_l	subtalar_angle_l	mtp_angle_l	lumbar_extension	lumbar_bending	lumbar_rotation	arm_flex_r	arm_add_r	arm_rot_r	elbow_flex_r	pro_sup_r	wrist_flex_r	wrist_dev_r	arm_flex_l	arm_add_l	arm_rot_l	elbow_flex_l	pro_sup_l	wrist_flex_l	wrist_dev_l
1.5	-0.1421453060774864	-0.002736513733849177	0.02312215336346898	0.7956310117814984	0.9691474664911076	0.5075145691035573	0.2260348817910521	0.02967491261915518	0.1054249552552817	0.3025437688087824	0	0	0.3025437688087824	0.1668127188001091	-0.05808943128825318	-0.1311661846934113	0.5759974381576312	-0.01286711139144038	0.07992298591506758	1.055597522130112	0	0	1.055597522130112	0.1048831313089339	-0.09712391141736493	-0.3178526324146912	-0.05048215304954697	0.000109433117085514	-0.002145690745728563	-0.0004060166733991233	-0.2868161655419848	-0.09167334857370377	0.8111439382806162	1.57079633	0	0	-0.08337131647250606	-0.3176643433057643	0.2057860238923207	0.6219356326552328	1.57079633	0	0
1.505	-0.1417904615320859	-0.005657311518578278	0.02138363120024974	0.7953828967164291	0.9692860912571122	0.5076880628373079	0.2155150433405051	0.03314936212318383	0.106920099574485	0.2958609367233758	0	0	0.2958609367233758	0.1662670440583243	-0.05719334203415528	-0.1326196674978983	0.5788486918989857	-0.01855184282158823	0.07589944327546638	1.031618200328967	0	0	1.031618200328967	0.09930147351053088	-0.1014326531481534	-0.3123626710257243	-0.05105499771958652	0.00306419129693674	-0.001648346036282973	0.004125323997805318	-0.2897182136381002	-0.08923194592640384	0.8216456584108914	1.57079633	0	0	-0.09110102312760789	-0.3158569553907013	0.2044368357862016	0.6191617593188987	1.57079633	0	0
1.51	-0.1414518802597778	-0.00862306159694304	0.01960660921248606	0.7951303960075671	0.9694183353596789	0.5078565167605763	0.2049017615380496	0.0366590223537078	0.1084342540639799	0.2891281815708027	0	0	0.2891281815708027	0.165710658406408	-0.05625209190190766	-0.1341346196925457	0.5816677372437385	-0.02428860153065111	0.07188798992529535	1.006979789367788	0	0	1.006979789367788	0.09375082398909593	-0.1056355983205606	-0.3068904521135132	-0.05162105589451463	0.006086767383540633	-0.001148829093418083	0.008733141712169552	-0.2926676728003272	-0.08675563186167398	0.8322450000918921	1.57079633	0	0	-0.09895868706516886	-0.3140030335922288	0.2030200902068549	0.616471145867899	1.57079633	0	0
1.515	-0.1411291800040062	-0.01161790479244973	0.01779201900369182	0.7948742443689105	0.9695410877356391	0.5080167231970442	0.1942428233769086	0.04017909293689158	0.1099653592874095	0.2823886044347068	0	0	0.2823886044347068	0.165144808163193	-0.05525907036034007	-0.1357135933170386	0.5844091604244062	-0.03003887500565054	0.06792327929390914	0.9816797137727649	0	0	0.9816797137727649	0.08832704679448974	-0.109634814593625	-0.3014884934334784	-0.05218548518633627	0.00916673048244274	-0.0006509947542590671	0.01340529368119084	-0.295655292304236	-0.0842461956196735	0.8428914380123034	1.57079633	0	0	-0.1069195913462024	-0.312103361527748	0.2015172278673305	0.6139198602161707	1.57079633	0	0
1.52	-0.1408218357207703	-0.01462750875671068	0.0159403513067082	0.7946151674760223	0.9696511026537308	0.5081655229007672	0.1835821945124481	0.04368647983792665	0.1115122469819022	0.2756838260543372	0	0	0.2756838260543372	0.1645704610008224	-0.05420812187663103	-0.1373586873585965	0.5870292009920375	-0.03576682448877815	0.06403684890749735	0.9557128002657431	0	0	0.9557128002657431	0.083123663148797	-0.1133324853300276	-0.2962052367421963	-0.05275361934550273	0.01229505242054869	-0.0001586463267725052	0.01813099842063588	-0.2986725908910406	-0.08170449279494667	0.8535376944539489	1.57079633	0	0	-0.1149615505680706	-0.3101579412056706	0.1999084360073202	0.6115631523147078	1.57079633	0	0
1.525	-0.140529252091746	-0.01763933218889058	0.01405180524237949	0.7943538937949739	0.969745052118679	0.5082998812531848	0.1729595273703782	0.04716026889666883	0.113074575605767	0.2690534142782322	0	0	0.2690534142782322	0.1639883660300626	-0.05309385491987416	-0.1390712896035728	0.5894869676963543	-0.04143999390092772	0.06025624389504354	0.9290742404041737	0	0	0.9290742404041737	0.07822922787181985	-0.1166334302245739	-0.2910838397203926	-0.05333071413013824	0.01546418889807899	0.0003245147626591315	0.02290075313332311	-0.3017118310722565	-0.07913062788726093	0.8641402509993692	1.57079633	0	0	-0.1230649405932228	-0.3081661096424511	0.1981732584279963	0.6094540035166992	1.57079633	0	0
1.53	-0.1402508269120097	-0.02064278630169024	0.01212645096024813	0.7940911656775477	0.969819581156927	0.5084169576764846	0.162409836379118	0.05058207748403175	0.1146527210026139	0.2625344134445236	0	0	0.2625344134445236	0.1633991608020108	-0.05191189043033947	-0.1408518338104597	0.591745517940097	-0.04702981582421261	0.0566043842517675	0.9017626159631125	0	0	0.9017626159631125	0.07372519372606594	-0.1194473809801545	-0.2861613298941514	-0.05392171156236885	0.01866806655849776	0.0007949333479947513	0.02770619615873178	-0.3047659545923322	-0.0765241730199081	0.8746597095132606	1.57079633	0	0	-0.1312125988653205	-0.306126690111931	0.196291257861517	0.6076417353918577	1.57079633	0	0
1.535	-0.139985999083783	-0.02362928536282603	0.01016439141466458	0.7938277494493642	0.9698713651192935	0.508514166481971	0.1519633277433286	0.05393626984363853	0.1162476300436387	0.2561609790963238	0	0	0.2561609790963238	0.1628035233645881	-0.05065903071016779	-0.1426995907197574	0.5937727553914319	-0.05251190524351329	0.05309918195985169	0.8737828127348821	0	0	0.8737828127348821	0.06968432820219243	-0.1216909403943871	-0.281468076671182	-0.05453103529273301	0.02190197384305527	0.001249241533595147	0.0325399273415046	-0.3078284839569187	-0.0738844128206958	0.8850610083155046	1.57079633	0	0	-0.1393896138272996	-0.304038171528431	0.1942427089262279	0.6061707220982864	1.57079633	0	0
1.54	-0.1397342792021596	-0.02659218315275327	0.008165911619212162	0.7935644443605141	0.9698971679490994	0.5085892278133167	0.1416453698670122	0.05721002773149869	0.1178606444992968	0.249964117597019	0	0	0.249964117597019	0.1622023642702079	-0.04933333518848672	-0.1446125128838677	0.5955421185814852	-0.05786614267512009	0.04975339307902278	0.845148671660131	0	0	0.845148671660131	0.0661696640258798	-0.1232892080860334	-0.2770275516378543	-0.05516242377001404	0.02516235721683802	0.001684297061451517	0.03739529852984258	-0.310893395239683	-0.07121060449295895	0.895313504302449	1.57079633	0	0	-0.1475830259791044	-0.301898908703934	0.1920092978165242	0.6050792440574261	1.57079633	0	0
1.545	-0.1394952635484378	-0.02952659962041169	0.006131607655687623	0.793302090294616	0.9698939001313344	0.5086402077384111	0.1314765892267249	0.0603932769699177	0.1194933006797306	0.2439715267491231	0	0	0.2439715267491231	0.1615970503642634	-0.04793409689049535	-0.1465871525507336	0.5970330494026277	-0.06307655891905191	0.04657467933849634	0.815885256748891	0	0	0.815885256748891	0.0632339104729806	-0.1241770907652805	-0.2728563641934756	-0.05581880361083064	0.02844653049171031	0.002097218167503342	0.04226618511337726	-0.3139549686634409	-0.06850224129336879	0.9053909358361772	1.57079633	0	0	-0.1557814646496295	-0.2997073356238877	0.1895748036589847	0.6043985139335991	1.57079633	0	0
1.55	-0.1392686325707802	-0.03242914980945925	0.004062491318769238	0.7930415742016108	0.9698586749568453	0.5086655469395962	0.1214730734985718	0.06347848013698755	0.1211471089078172	0.2382075303768733	0	0	0.2382075303768733	0.1609896496081767	-0.04646172082970941	-0.1486186691285674	0.5982312406376229	-0.06813104314679086	0.04356585061663451	0.7860306515914579	0	0	0.7860306515914579	0.06091923111459237	-0.1243003277219179	-0.2689645585268268	-0.05650220426281189	0.03175231151098727	0.00248541370373099	0.04714674798769107	-0.3170076252102911	-0.06575930720793123	0.9152712843253211	1.57079633	0	0	-0.1639747441842179	-0.2974621834905853	0.1869257362031143	0.6041518990627817	1.57079633	0	0
1.555	-0.1390541340436436	-0.0352975933636557	0.001960068657073346	0.7927838353668167	0.9697888618126504	0.5086640778552119	0.1116466604537655	0.06646031359796006	0.1228233164721864	0.2326930970777291	0	0	0.2326930970777291	0.1603831840051373	-0.04491751178757829	-0.1507009387556512	0.5991286679774597	-0.07302090356069492	0.04072525901170535	0.7556372270111564	0	0	0.7556372270111564	0.05925729236714984	-0.1236162630456502	-0.2653561471071303	-0.05721371497327014	0.03507760573411287	0.002846607801733082	0.05203119407405432	-0.3200457588658874	-0.06298251104315619	0.9249365542300473	1.57079633	0	0	-0.1721534420846315	-0.2951626949117779	0.1840519054955916	0.6043543571774747	1.57079633	0	0
1.56	-0.1388515510315156	-0.03813042712577734	-0.0001736079365611196	0.7925298697951006	0.9696821353191534	0.5086350304766473	0.1020052898147638	0.06933525275937415	0.1245226580377703	0.2274459313107435	0	0	0.2274459313107435	0.1597818759124905	-0.04330338372459467	-0.1528267733516523	0.5997234179064771	-0.07774031504235857	0.03804731492357528	0.7247723505386979	0	0	0.7247723505386979	0.05826949497532521	-0.1220943930132372	-0.2620298452792509	-0.05795348382531791	0.03841995999869528	0.00317885887256434	0.05691354271399401	-0.3230635744708096	-0.06017349009486836	0.9343724911337675	1.57079633	0	0	-0.1803084802830882	-0.2928088252116943	0.180946902080996	0.6050120942181855	1.57079633	0	0
1.565	-0.138660656469827	-0.04092644603062794	-0.002335913326877825	0.7922807340927178	0.969536519155749	0.5085780272748064	0.09255339711214378	0.07210109332262535	0.126245097793565	0.2224806241917437	0	0	0.2224806241917437	0.1591913719932143	-0.04162150665828876	-0.1549882502070303	0.6000193301712793	-0.08228569115476622	0.0355230961508386	0.6935185338939407	0	0	0.6935185338939407	0.05796731249700992	-0.1197167130401918	-0.2589799641901351	-0.05872075521207247	0.04177611235282143	0.003480572923965287	0.06178740465735336	-0.3260549404221348	-0.05733497720956385	0.9435682552029927	1.57079633	0	0	-0.1884307289692032	-0.2904014218016973	0.1776084713788787	0.6061224444092403	1.57079633	0	0
1.57	-0.1384811587619032	-0.04368429891824071	-0.004523647002621544	0.7920375492281729	0.969350423379982	0.5084930679553271	0.0832923326475726	0.07475643880854087	0.1279895675831327	0.2178088519430845	0	0	0.2178088519430845	0.1586189290386426	-0.03987390968281679	-0.15717714623725	0.6000254813971122	-0.0866550188178377	0.03314102269136467	0.6619730373321159	0	0	0.6619730373321159	0.0583526752602334	-0.1164778842316668	-0.2561974149997415	-0.05951393791549929	0.04514156524954206	0.0037505112263678	0.06664577964439271	-0.3290132639407116	-0.05447092943307858	0.9525160635969844	1.57079633	0	0	-0.1965106497518588	-0.287942373354708	0.1740387722879852	0.6076739645375873	1.57079633	0	0
1.575	-0.1383126443811387	-0.04640206562352146	-0.0067330511529692	0.7918015044610746	0.9691226741185602	0.5083805049479903	0.07422079255451555	0.07730018522019164	0.1297537051182988	0.2134396114021141	0	0	0.2134396114021141	0.1580735467207589	-0.03806206101416798	-0.1593854646157309	0.5997555421876882	-0.09084719279832176	0.03088757205585124	0.630246968814532	0	0	0.630246968814532	0.05941835388962497	-0.1123852352193966	-0.2536707756697941	-0.06033069351803538	0.04851020881689476	0.003987792507655657	0.07148087770387114	-0.3319313948998598	-0.05158661983902564	0.9612108118967884	1.57079633	0	0	-0.2045379913869948	-0.2854347221395143	0.1702445159553063	0.6096467277697436	1.57079633	0	0
1.58	-0.1381545229809033	-0.04907687927348826	-0.008959845553089558	0.7915738616001242	0.9688525348021952	0.5082410107135222	0.06533525102013801	0.07973103176134169	0.1315335965129419	0.2093794835889297	0	0	0.2093794835889297	0.1575660335751457	-0.03618644736914196	-0.1616060364504509	0.5992270420218102	-0.09486138367088083	0.02874801169685107	0.5984639308450164	0	0	0.5984639308450164	0.06114831223032241	-0.1074586110022547	-0.2513873721735898	-0.06116803553240799	0.0518740177526881	0.004191890059257938	0.07628396837690157	-0.3348015627160978	-0.04868869546749992	0.969649682690634	1.57079633	0	0	-0.2125015474071297	-0.2828827348371702	0.1662369847359895	0.6120127980427122	1.57079633	0	0
